<svg xmlns="http://www.w3.org/2000/svg" width="261.261" height="48.268" viewBox="0 0 261.261 48.268"><g transform="translate(-432 -268)"><g transform="translate(432 268)"><path d="M120.682,6.89v-1.1c-.333-.208-5.31-2.686-5.31-2.686S110.333,5.578,110,5.786v1.1h0V25.9a34.026,34.026,0,0,0,.229,4.29,7.064,7.064,0,0,0,.812,2.686,3.072,3.072,0,0,0,1.6,1.4,9.246,9.246,0,0,0,5.352,0,3.173,3.173,0,0,0,1.645-1.4,7.434,7.434,0,0,0,.833-2.686,34.265,34.265,0,0,0,.229-4.29L120.682,6.89Z" transform="translate(-92.717 -3.1)" fill="#fff"/><path d="M63.607,36.821V51.189a59.071,59.071,0,0,1-.583,9.225,12.965,12.965,0,0,1-2.145,5.768,8.206,8.206,0,0,1-4.269,2.978,24.161,24.161,0,0,1-7,.833,24.161,24.161,0,0,1-7-.833,8.125,8.125,0,0,1-4.269-2.978A13.322,13.322,0,0,1,36.2,60.414a61.749,61.749,0,0,1-.583-9.225V36.8L27,41.11V51a66.065,66.065,0,0,0,.9,11.536,20.787,20.787,0,0,0,3.373,8.517,14.98,14.98,0,0,0,6.872,5.227,31.092,31.092,0,0,0,11.474,1.77,31.081,31.081,0,0,0,11.432-1.77,15.277,15.277,0,0,0,6.913-5.227,20.787,20.787,0,0,0,3.373-8.517A66.065,66.065,0,0,0,72.228,51V41.194Z" transform="translate(-27 -29.783)" fill="#fdad00"/></g><path d="M7.935.414A10.1,10.1,0,0,1,4.692-.023a4.4,4.4,0,0,1-2-1.323A5.069,5.069,0,0,1,1.668-3.531,14.117,14.117,0,0,1,1.38-6.555v-9.821H4.439v9.821a12.278,12.278,0,0,0,.149,2.116,3.031,3.031,0,0,0,.529,1.322,1.977,1.977,0,0,0,1.058.69,6.519,6.519,0,0,0,1.76.2,6.544,6.544,0,0,0,1.748-.2,2.041,2.041,0,0,0,1.081-.69,2.946,2.946,0,0,0,.54-1.322,12.278,12.278,0,0,0,.149-2.116v-9.821h3.059v9.821a14.117,14.117,0,0,1-.287,3.025A5.069,5.069,0,0,1,13.2-1.346,4.394,4.394,0,0,1,11.19-.023,10.211,10.211,0,0,1,7.935.414ZM22.747-2.024a6.4,6.4,0,0,0,1.346-.115,1.355,1.355,0,0,0,.8-.483,2.2,2.2,0,0,0,.391-1.023,11.609,11.609,0,0,0,.1-1.737V-6.555a10.865,10.865,0,0,0-.115-1.771,2.218,2.218,0,0,0-.4-1.024,1.379,1.379,0,0,0-.805-.471,6.267,6.267,0,0,0-1.323-.115,6.1,6.1,0,0,0-1.311.115,1.457,1.457,0,0,0-.805.46,2.047,2.047,0,0,0-.414,1A10.289,10.289,0,0,0,20.1-6.647v1.633a7.218,7.218,0,0,0,.127,1.484,1.977,1.977,0,0,0,.425.92,1.555,1.555,0,0,0,.805.46A5.442,5.442,0,0,0,22.747-2.024Zm5.681-3.4a11.611,11.611,0,0,1-.265,2.668,3.966,3.966,0,0,1-.9,1.794A3.694,3.694,0,0,1,25.6.046a8.794,8.794,0,0,1-2.576.322A6.034,6.034,0,0,1,21.275.149,3.263,3.263,0,0,1,20.1-.46V4.025h-2.99V-6.647a9.571,9.571,0,0,1,.322-2.691,3.937,3.937,0,0,1,1.012-1.748,3.955,3.955,0,0,1,1.783-.955,10.361,10.361,0,0,1,2.611-.287,10.236,10.236,0,0,1,2.553.276,3.729,3.729,0,0,1,1.736.955A3.992,3.992,0,0,1,28.118-9.3a10.614,10.614,0,0,1,.311,2.794Zm10.3,3.036V-7.268a6.4,6.4,0,0,0-.115-1.346,1.509,1.509,0,0,0-.426-.805,1.75,1.75,0,0,0-.828-.4,6.267,6.267,0,0,0-1.322-.115,5.687,5.687,0,0,0-1.334.126,1.429,1.429,0,0,0-.793.483,2.014,2.014,0,0,0-.38.989,11.648,11.648,0,0,0-.092,1.622v.989a11.412,11.412,0,0,0,.1,1.714A2.122,2.122,0,0,0,33.937-3a1.434,1.434,0,0,0,.805.483,5.84,5.84,0,0,0,1.346.127ZM35.995,0a10.135,10.135,0,0,1-2.68-.3A3.66,3.66,0,0,1,31.6-1.277a3.9,3.9,0,0,1-.92-1.759,10.855,10.855,0,0,1-.276-2.645v-.966a10.694,10.694,0,0,1,.264-2.542,4.108,4.108,0,0,1,.885-1.771,3.654,3.654,0,0,1,1.633-1.035,8.013,8.013,0,0,1,2.484-.333,6.978,6.978,0,0,1,1.806.218,3.48,3.48,0,0,1,1.254.564v-5.543h2.99V-2.162a2.207,2.207,0,0,1-.529,1.668A2.857,2.857,0,0,1,39.261,0ZM51.612-2.162V-4.025a2.635,2.635,0,0,0-.081-.7A.856.856,0,0,0,51.2-5.2a1.714,1.714,0,0,0-.713-.264,7.366,7.366,0,0,0-1.219-.081h-.345a3.356,3.356,0,0,0-1.771.322,1.336,1.336,0,0,0-.46,1.173v.437a1.345,1.345,0,0,0,.425,1.092,2.541,2.541,0,0,0,1.576.356Zm2.9,0a2.14,2.14,0,0,1-.552,1.691A2.971,2.971,0,0,1,52.049,0H48.3a5.2,5.2,0,0,1-3.485-.92,3.373,3.373,0,0,1-1.023-2.645v-.506a3.269,3.269,0,0,1,1.127-2.772,5.8,5.8,0,0,1,3.519-.863,8.494,8.494,0,0,1,1.989.2,4.031,4.031,0,0,1,1.185.449v-.414a3.6,3.6,0,0,0-.126-1.035,1.308,1.308,0,0,0-.426-.656,1.776,1.776,0,0,0-.816-.333,7.622,7.622,0,0,0-1.3-.092h-.966q-.529,0-1.069.011l-1.069.023q-.529.011-.966.012l.483-2.415q.644-.023,1.61-.035t2.116-.011a6.866,6.866,0,0,1,4.117.989A3.637,3.637,0,0,1,54.51-7.912ZM63.618,0H61.755a11.28,11.28,0,0,1-2.381-.207A3.027,3.027,0,0,1,57.9-.932a2.749,2.749,0,0,1-.748-1.392,9.684,9.684,0,0,1-.207-2.185V-14.743l2.99-.483v3.266h4.3L63.756-9.5H59.938v4.83a6.427,6.427,0,0,0,.081,1.127,1.357,1.357,0,0,0,.3.679,1.1,1.1,0,0,0,.621.322,5.367,5.367,0,0,0,1.024.08H64.1Zm5.014-4.968a8.177,8.177,0,0,0,.092,1.357,1.543,1.543,0,0,0,.38.828,1.544,1.544,0,0,0,.794.414,6.236,6.236,0,0,0,1.334.115h1.84q1.035,0,2.553-.046L75.164,0q-.644.023-1.15.034t-.978.012H71.093A8.315,8.315,0,0,1,68.4-.322,3.861,3.861,0,0,1,66.734-1.38a3.88,3.88,0,0,1-.851-1.691,9.8,9.8,0,0,1-.242-2.289V-6.647a10.542,10.542,0,0,1,.253-2.438,4.114,4.114,0,0,1,.886-1.783,3.875,3.875,0,0,1,1.7-1.093,8.423,8.423,0,0,1,2.7-.368,8.079,8.079,0,0,1,2.519.333,4.114,4.114,0,0,1,1.61.932,3.334,3.334,0,0,1,.863,1.415,6,6,0,0,1,.253,1.783v.391A7.211,7.211,0,0,1,76.337-6.2a1.744,1.744,0,0,1-.311.771,1.042,1.042,0,0,1-.563.368,3.356,3.356,0,0,1-.851.092Zm2.484-5.106a5.148,5.148,0,0,0-1.265.126,1.419,1.419,0,0,0-.759.46,1.848,1.848,0,0,0-.368.9,9.2,9.2,0,0,0-.092,1.438h4.945v-.529a4.721,4.721,0,0,0-.115-1.127,1.544,1.544,0,0,0-.391-.736,1.633,1.633,0,0,0-.759-.4A4.8,4.8,0,0,0,71.116-10.074Zm19.941-3.7a9.522,9.522,0,0,0-2.012.172,2.134,2.134,0,0,0-1.208.69,2.914,2.914,0,0,0-.586,1.438,15.463,15.463,0,0,0-.15,2.392v1.794a13.273,13.273,0,0,0,.173,2.369,3,3,0,0,0,.621,1.438,2.252,2.252,0,0,0,1.219.7A8.816,8.816,0,0,0,91.1-2.6h1.782q.518,0,1.127-.011T95.4-2.645L94.9,0q-1.357.046-2.312.046H91.011A12.412,12.412,0,0,1,87.63-.345,4.8,4.8,0,0,1,85.445-1.6a4.877,4.877,0,0,1-1.173-2.266,14.694,14.694,0,0,1-.345-3.45V-9.085a13.924,13.924,0,0,1,.368-3.473A4.988,4.988,0,0,1,85.5-14.824a4.707,4.707,0,0,1,2.185-1.231,12.69,12.69,0,0,1,3.3-.368h1.759q.977,0,2.519.046l-.506,2.645q-.782-.023-1.806-.035T91.057-13.777Zm11.431,1.449a10.742,10.742,0,0,1,2.622.276,3.924,3.924,0,0,1,1.771.932,3.774,3.774,0,0,1,1,1.76,10.375,10.375,0,0,1,.311,2.76v1.242a10.375,10.375,0,0,1-.311,2.76,3.774,3.774,0,0,1-1,1.76,3.924,3.924,0,0,1-1.771.932,10.742,10.742,0,0,1-2.622.276A10.855,10.855,0,0,1,99.843.092,3.924,3.924,0,0,1,98.072-.84a3.774,3.774,0,0,1-1-1.76,10.375,10.375,0,0,1-.311-2.76V-6.6a10.375,10.375,0,0,1,.311-2.76,3.774,3.774,0,0,1,1-1.76,3.924,3.924,0,0,1,1.771-.932A10.855,10.855,0,0,1,102.488-12.328Zm2.668,5.681a10.288,10.288,0,0,0-.115-1.714,2.12,2.12,0,0,0-.4-1,1.406,1.406,0,0,0-.805-.46,6.4,6.4,0,0,0-1.345-.115,6.575,6.575,0,0,0-1.357.115,1.413,1.413,0,0,0-.816.46,2.12,2.12,0,0,0-.4,1A10.288,10.288,0,0,0,99.8-6.647V-5.29a10.074,10.074,0,0,0,.115,1.7,2.106,2.106,0,0,0,.4.989,1.413,1.413,0,0,0,.816.46,6.575,6.575,0,0,0,1.357.115,6.4,6.4,0,0,0,1.345-.115,1.406,1.406,0,0,0,.805-.46,2.106,2.106,0,0,0,.4-.989,10.074,10.074,0,0,0,.115-1.7ZM110.4,0V-8.142a5.2,5.2,0,0,1,.322-1.932,2.94,2.94,0,0,1,.989-1.3,4.446,4.446,0,0,1,1.7-.725,11.48,11.48,0,0,1,2.461-.23,7.1,7.1,0,0,1,4.151.955,3.746,3.746,0,0,1,1.3,3.231V0h-2.99V-7.774a5.361,5.361,0,0,0-.069-.92,1.278,1.278,0,0,0-.311-.656,1.461,1.461,0,0,0-.736-.391,5.66,5.66,0,0,0-1.345-.127,5.66,5.66,0,0,0-1.345.127,1.537,1.537,0,0,0-.748.391,1.234,1.234,0,0,0-.322.656,5.361,5.361,0,0,0-.069.92V0Zm19.113-14.674a6.831,6.831,0,0,0-1.288.1,1.7,1.7,0,0,0-.851.4,1.675,1.675,0,0,0-.46.828,6.311,6.311,0,0,0-.161,1.38h4.3L130.571-9.5h-3.818V0h-2.99V-11.592a9.689,9.689,0,0,1,.3-2.6,3.738,3.738,0,0,1,.978-1.713,3.932,3.932,0,0,1,1.771-.943,10.688,10.688,0,0,1,2.68-.288h1.173q.276,0,.575.012t.713.035l-.483,2.461q-.483-.023-.989-.035T129.513-14.674Zm5.152,9.706a8.178,8.178,0,0,0,.092,1.357,1.543,1.543,0,0,0,.38.828,1.544,1.544,0,0,0,.794.414,6.236,6.236,0,0,0,1.334.115h1.84q1.035,0,2.553-.046L141.2,0q-.644.023-1.15.034t-.977.012h-1.943a8.315,8.315,0,0,1-2.691-.368,3.861,3.861,0,0,1-1.667-1.058,3.88,3.88,0,0,1-.851-1.691,9.8,9.8,0,0,1-.242-2.289V-6.647a10.542,10.542,0,0,1,.253-2.438,4.113,4.113,0,0,1,.885-1.783,3.875,3.875,0,0,1,1.7-1.093,8.423,8.423,0,0,1,2.7-.368,8.079,8.079,0,0,1,2.519.333,4.114,4.114,0,0,1,1.61.932,3.334,3.334,0,0,1,.862,1.415,6,6,0,0,1,.253,1.783v.391A7.212,7.212,0,0,1,142.37-6.2a1.744,1.744,0,0,1-.311.771,1.043,1.043,0,0,1-.564.368,3.356,3.356,0,0,1-.851.092Zm2.484-5.106a5.148,5.148,0,0,0-1.265.126,1.419,1.419,0,0,0-.759.46,1.848,1.848,0,0,0-.368.9,9.2,9.2,0,0,0-.092,1.438h4.945v-.529a4.721,4.721,0,0,0-.115-1.127,1.544,1.544,0,0,0-.391-.736,1.633,1.633,0,0,0-.759-.4A4.8,4.8,0,0,0,137.149-10.074ZM147.545,0h-2.99V-7.866a5.179,5.179,0,0,1,.322-1.944,3.015,3.015,0,0,1,.943-1.276,3.967,3.967,0,0,1,1.518-.7,8.684,8.684,0,0,1,2.047-.218h1.5q.621,0,1.219.023L151.616-9.5q-.46-.023-1.012-.035t-.92-.011a3.782,3.782,0,0,0-1.15.138,1.429,1.429,0,0,0-.644.4,1.263,1.263,0,0,0-.288.667,6.856,6.856,0,0,0-.057.955Zm8.372-4.968a8.178,8.178,0,0,0,.092,1.357,1.543,1.543,0,0,0,.38.828,1.544,1.544,0,0,0,.794.414,6.236,6.236,0,0,0,1.334.115h1.84q1.035,0,2.553-.046l-.46,2.3q-.644.023-1.15.034t-.978.012h-1.943a8.315,8.315,0,0,1-2.691-.368A3.861,3.861,0,0,1,154.02-1.38a3.88,3.88,0,0,1-.851-1.691,9.8,9.8,0,0,1-.242-2.289V-6.647a10.542,10.542,0,0,1,.253-2.438,4.113,4.113,0,0,1,.885-1.783,3.875,3.875,0,0,1,1.7-1.093,8.423,8.423,0,0,1,2.7-.368,8.079,8.079,0,0,1,2.519.333,4.114,4.114,0,0,1,1.61.932,3.334,3.334,0,0,1,.862,1.415,6,6,0,0,1,.253,1.783v.391a7.212,7.212,0,0,1-.092,1.276,1.744,1.744,0,0,1-.311.771,1.043,1.043,0,0,1-.564.368,3.356,3.356,0,0,1-.851.092Zm2.484-5.106a5.148,5.148,0,0,0-1.265.126,1.419,1.419,0,0,0-.759.46,1.848,1.848,0,0,0-.368.9,9.2,9.2,0,0,0-.092,1.438h4.945v-.529a4.721,4.721,0,0,0-.115-1.127,1.544,1.544,0,0,0-.391-.736,1.633,1.633,0,0,0-.759-.4A4.8,4.8,0,0,0,158.4-10.074ZM165.807,0V-8.142a5.2,5.2,0,0,1,.322-1.932,2.94,2.94,0,0,1,.989-1.3,4.446,4.446,0,0,1,1.7-.725,11.48,11.48,0,0,1,2.461-.23,7.1,7.1,0,0,1,4.152.955,3.746,3.746,0,0,1,1.3,3.231V0h-2.99V-7.774a5.36,5.36,0,0,0-.069-.92,1.278,1.278,0,0,0-.311-.656,1.461,1.461,0,0,0-.736-.391,5.66,5.66,0,0,0-1.346-.127,5.66,5.66,0,0,0-1.345.127,1.537,1.537,0,0,0-.747.391,1.234,1.234,0,0,0-.322.656,5.36,5.36,0,0,0-.069.92V0Zm18.929-9.591a7.443,7.443,0,0,0-1.38.1,1.582,1.582,0,0,0-.839.414,1.708,1.708,0,0,0-.426.908,8.583,8.583,0,0,0-.115,1.564v1.242A7.821,7.821,0,0,0,182.1-3.8a1.773,1.773,0,0,0,.437.908,1.592,1.592,0,0,0,.851.414,7.323,7.323,0,0,0,1.346.1q.782,0,1.7-.012t1.656-.034L187.611,0q-.736.023-1.564.034t-1.38.012a10.8,10.8,0,0,1-2.7-.288,3.993,3.993,0,0,1-1.771-.932,3.575,3.575,0,0,1-.966-1.668,9.447,9.447,0,0,1-.288-2.519V-6.6a9.129,9.129,0,0,1,.3-2.507,3.658,3.658,0,0,1,.978-1.679,3.993,3.993,0,0,1,1.771-.931,10.688,10.688,0,0,1,2.68-.288q1.265,0,3.381.069l-.483,2.415q-.966-.046-1.69-.057T184.736-9.591Zm7.728,4.623a8.178,8.178,0,0,0,.092,1.357,1.543,1.543,0,0,0,.38.828,1.544,1.544,0,0,0,.794.414,6.236,6.236,0,0,0,1.334.115h1.84q1.035,0,2.553-.046L199,0q-.644.023-1.15.034t-.978.012h-1.943a8.315,8.315,0,0,1-2.691-.368,3.861,3.861,0,0,1-1.667-1.058,3.88,3.88,0,0,1-.851-1.691,9.8,9.8,0,0,1-.242-2.289V-6.647a10.542,10.542,0,0,1,.253-2.438,4.113,4.113,0,0,1,.885-1.783,3.875,3.875,0,0,1,1.7-1.093,8.423,8.423,0,0,1,2.7-.368,8.079,8.079,0,0,1,2.519.333,4.114,4.114,0,0,1,1.61.932,3.334,3.334,0,0,1,.862,1.415,6,6,0,0,1,.253,1.783v.391a7.212,7.212,0,0,1-.092,1.276,1.744,1.744,0,0,1-.311.771,1.043,1.043,0,0,1-.564.368,3.356,3.356,0,0,1-.851.092Zm2.484-5.106a5.148,5.148,0,0,0-1.265.126,1.419,1.419,0,0,0-.759.46,1.848,1.848,0,0,0-.368.9,9.2,9.2,0,0,0-.092,1.438h4.945v-.529a4.721,4.721,0,0,0-.115-1.127,1.544,1.544,0,0,0-.391-.736,1.633,1.633,0,0,0-.759-.4A4.8,4.8,0,0,0,194.948-10.074ZM4.531,20.066V26H1.5V9.624H7.843q3.174,0,4.554,1.161a4.385,4.385,0,0,1,1.38,3.554v1.012a4.3,4.3,0,0,1-1.426,3.577,7.212,7.212,0,0,1-4.508,1.139Zm6.187-5.382a4.291,4.291,0,0,0-.149-1.242,1.421,1.421,0,0,0-.506-.748,2.188,2.188,0,0,0-.92-.368,7.874,7.874,0,0,0-1.391-.1H4.531v5.244h3.22a7.874,7.874,0,0,0,1.391-.1,2.188,2.188,0,0,0,.92-.368,1.421,1.421,0,0,0,.506-.747,4.291,4.291,0,0,0,.149-1.242ZM18.423,26h-2.99V18.134a5.179,5.179,0,0,1,.322-1.944,3.015,3.015,0,0,1,.943-1.276,3.967,3.967,0,0,1,1.518-.7,8.684,8.684,0,0,1,2.047-.218h1.495q.621,0,1.219.023L22.494,16.5q-.46-.023-1.012-.035t-.92-.011a3.782,3.782,0,0,0-1.15.138,1.429,1.429,0,0,0-.644.4,1.263,1.263,0,0,0-.288.667,6.855,6.855,0,0,0-.057.955Zm12.995-2.162V21.975a2.635,2.635,0,0,0-.08-.7A.856.856,0,0,0,31,20.8a1.714,1.714,0,0,0-.713-.264,7.366,7.366,0,0,0-1.219-.08h-.345a3.356,3.356,0,0,0-1.771.322,1.336,1.336,0,0,0-.46,1.173v.437a1.345,1.345,0,0,0,.425,1.093,2.541,2.541,0,0,0,1.576.356Zm2.9,0a2.14,2.14,0,0,1-.552,1.691A2.971,2.971,0,0,1,31.855,26H28.106a5.2,5.2,0,0,1-3.484-.92A3.373,3.373,0,0,1,23.6,22.435v-.506a3.269,3.269,0,0,1,1.127-2.772,5.8,5.8,0,0,1,3.519-.862,8.494,8.494,0,0,1,1.99.2,4.031,4.031,0,0,1,1.184.448v-.414a3.6,3.6,0,0,0-.126-1.035,1.308,1.308,0,0,0-.425-.656,1.776,1.776,0,0,0-.817-.333,7.622,7.622,0,0,0-1.3-.092h-.966q-.529,0-1.069.011l-1.069.023q-.529.011-.966.011l.483-2.415q.644-.023,1.61-.035t2.116-.011a6.866,6.866,0,0,1,4.117.989,3.637,3.637,0,0,1,1.311,3.105Zm7.889-.69a5.687,5.687,0,0,0,1.334-.126,1.689,1.689,0,0,0,.805-.425,1.544,1.544,0,0,0,.4-.805,6.609,6.609,0,0,0,.1-1.288V19.376a16.114,16.114,0,0,0-.069-1.656,2.025,2.025,0,0,0-.345-1.012,1.411,1.411,0,0,0-.805-.506,7.437,7.437,0,0,0-2.852,0,1.411,1.411,0,0,0-.805.506,2.025,2.025,0,0,0-.345,1.012,16.115,16.115,0,0,0-.069,1.656v.46a13.83,13.83,0,0,0,.08,1.656,2.186,2.186,0,0,0,.345,1.012,1.356,1.356,0,0,0,.793.506A5.871,5.871,0,0,0,42.205,23.148Zm2.645,1.564a3.66,3.66,0,0,1-1.173.6,6.408,6.408,0,0,1-1.909.23,7.742,7.742,0,0,1-2.5-.345,3.661,3.661,0,0,1-1.61-1.046,4.179,4.179,0,0,1-.874-1.76,10.212,10.212,0,0,1-.265-2.461v-.644a10.75,10.75,0,0,1,.242-2.4,3.868,3.868,0,0,1,.886-1.76,4.005,4.005,0,0,1,1.736-1.081,8.908,8.908,0,0,1,2.794-.368,8.852,8.852,0,0,1,2.829.379,4.115,4.115,0,0,1,1.736,1.069,3.659,3.659,0,0,1,.862,1.667,9.5,9.5,0,0,1,.23,2.174V24.9a7.961,7.961,0,0,1-.31,2.369,3.54,3.54,0,0,1-1,1.61,4.218,4.218,0,0,1-1.771.909,10.331,10.331,0,0,1-2.622.287H40.273q-.506,0-1.115-.011t-1.437-.035l.483-2.392q.644.023,1.161.035t.966.012H42a5.9,5.9,0,0,0,1.322-.127,1.966,1.966,0,0,0,.886-.437,1.737,1.737,0,0,0,.494-.862,5.377,5.377,0,0,0,.149-1.38Zm10.856,1.656a11.63,11.63,0,0,1-2.4-.219,4.424,4.424,0,0,1-1.7-.713,2.918,2.918,0,0,1-1-1.288,5.251,5.251,0,0,1-.322-1.967V14.04h2.99v7.751a5.361,5.361,0,0,0,.069.92,1.278,1.278,0,0,0,.311.656,1.53,1.53,0,0,0,.736.4,5.093,5.093,0,0,0,1.322.138,4.957,4.957,0,0,0,1.311-.138,1.524,1.524,0,0,0,.725-.4,1.278,1.278,0,0,0,.31-.656,5.361,5.361,0,0,0,.069-.92V14.04h2.99v8.142a3.707,3.707,0,0,1-1.323,3.255A7.154,7.154,0,0,1,55.706,26.368Zm10.6-5.336a8.177,8.177,0,0,0,.092,1.357,1.393,1.393,0,0,0,1.173,1.242,6.236,6.236,0,0,0,1.334.115h1.84q1.035,0,2.553-.046l-.46,2.3q-.644.023-1.15.035t-.977.011H68.77a8.315,8.315,0,0,1-2.691-.368A3.631,3.631,0,0,1,63.56,22.93a9.8,9.8,0,0,1-.242-2.289V19.353a10.542,10.542,0,0,1,.253-2.438,4.114,4.114,0,0,1,.885-1.783,3.875,3.875,0,0,1,1.7-1.093,8.423,8.423,0,0,1,2.7-.368,8.079,8.079,0,0,1,2.519.333,4.114,4.114,0,0,1,1.61.932,3.334,3.334,0,0,1,.862,1.415,6,6,0,0,1,.253,1.782v.391a7.211,7.211,0,0,1-.092,1.276,1.744,1.744,0,0,1-.311.771,1.042,1.042,0,0,1-.563.368,3.356,3.356,0,0,1-.851.092Zm2.484-5.106a5.148,5.148,0,0,0-1.265.126,1.419,1.419,0,0,0-.759.46,1.848,1.848,0,0,0-.368.9,9.2,9.2,0,0,0-.092,1.438h4.945v-.529a4.721,4.721,0,0,0-.115-1.127,1.544,1.544,0,0,0-.391-.736,1.633,1.633,0,0,0-.759-.4A4.8,4.8,0,0,0,68.793,15.926Zm17.066,4.3a4.106,4.106,0,0,0-.771.414,1.609,1.609,0,0,0-.46.506,1.952,1.952,0,0,0-.23.713,7.731,7.731,0,0,0-.058,1.035v.6h7.544L91.448,26H81.328V23.447a10.035,10.035,0,0,1,.184-2.047,4.621,4.621,0,0,1,.6-1.53,4.184,4.184,0,0,1,1.07-1.138,7.593,7.593,0,0,1,1.6-.874L87.4,16.731a5.111,5.111,0,0,0,.713-.356,1.635,1.635,0,0,0,.449-.4,1.391,1.391,0,0,0,.242-.54,3.626,3.626,0,0,0,.069-.771,1.944,1.944,0,0,0-.437-1.46,2.413,2.413,0,0,0-1.61-.4q-1.219,0-2.564.011t-2.588.035l.391-2.484q1.587-.046,2.7-.046h2.15A5.869,5.869,0,0,1,90.7,11.3a3.7,3.7,0,0,1,1.185,3.013v.322a4.632,4.632,0,0,1-.69,2.622,4.8,4.8,0,0,1-2.254,1.679Zm10.948-.943a19.2,19.2,0,0,0,.115,2.346,3.54,3.54,0,0,0,.437,1.415,1.6,1.6,0,0,0,.885.7,5.707,5.707,0,0,0,2.875,0,1.6,1.6,0,0,0,.886-.7,3.54,3.54,0,0,0,.437-1.415,19.2,19.2,0,0,0,.115-2.346V17.1a19.792,19.792,0,0,0-.115-2.369A3.481,3.481,0,0,0,102,13.3a1.616,1.616,0,0,0-.886-.69,5.707,5.707,0,0,0-2.875,0,1.616,1.616,0,0,0-.885.69,3.481,3.481,0,0,0-.437,1.426,19.792,19.792,0,0,0-.115,2.369Zm2.875-9.292a8.453,8.453,0,0,1,3,.449,4.051,4.051,0,0,1,1.828,1.334,5.124,5.124,0,0,1,.909,2.174,16.235,16.235,0,0,1,.242,2.967v2.53a16.235,16.235,0,0,1-.242,2.967,5.124,5.124,0,0,1-.909,2.174,4.051,4.051,0,0,1-1.828,1.334,10.268,10.268,0,0,1-6,0,3.976,3.976,0,0,1-1.817-1.334,5.212,5.212,0,0,1-.9-2.174,16.236,16.236,0,0,1-.241-2.967v-2.53a16.236,16.236,0,0,1,.241-2.967,5.212,5.212,0,0,1,.9-2.174A3.976,3.976,0,0,1,96.68,10.44,8.453,8.453,0,0,1,99.682,9.992ZM111.8,20.227a4.106,4.106,0,0,0-.771.414,1.609,1.609,0,0,0-.46.506,1.952,1.952,0,0,0-.23.713,7.731,7.731,0,0,0-.058,1.035v.6h7.544L117.392,26h-10.12V23.447a10.035,10.035,0,0,1,.184-2.047,4.621,4.621,0,0,1,.6-1.53,4.184,4.184,0,0,1,1.07-1.138,7.593,7.593,0,0,1,1.6-.874l2.622-1.127a5.111,5.111,0,0,0,.713-.356,1.635,1.635,0,0,0,.449-.4,1.391,1.391,0,0,0,.242-.54,3.626,3.626,0,0,0,.069-.771,1.944,1.944,0,0,0-.437-1.46,2.413,2.413,0,0,0-1.61-.4q-1.219,0-2.564.011t-2.588.035l.391-2.484q1.587-.046,2.7-.046h2.15a5.869,5.869,0,0,1,3.784.989,3.7,3.7,0,0,1,1.185,3.013v.322a4.632,4.632,0,0,1-.69,2.622,4.8,4.8,0,0,1-2.254,1.679ZM128.156,26h-8.51l.46-2.346h2.53V12.821h-3.013l.46-2.461h5.589V23.654h2.944Z" transform="translate(493 286.135)" fill="#fdad00"/></g></svg>